<?xml version="1.0" encoding="iso-8859-1"?>
<!-- Uploaded to: SVG Repo, www.svgrepo.com, Generator: SVG Repo Mixer Tools -->
<!DOCTYPE svg PUBLIC "-//W3C//DTD SVG 1.1//EN" "http://www.w3.org/Graphics/SVG/1.1/DTD/svg11.dtd">
<svg fill="#000000" version="1.1" id="Capa_1" xmlns="http://www.w3.org/2000/svg" xmlns:xlink="http://www.w3.org/1999/xlink" 
	 width="800px" height="800px" viewBox="0 0 334.79 334.791"
	 xml:space="preserve">
<g>
	<g>
		<path d="M108.713,156.676l-83.345-83.35c-2.545-2.539-5.921-3.925-9.512-3.925s-6.966,1.399-9.501,3.925
			c-2.552,2.548-3.937,5.924-3.937,9.514c0,3.591,1.396,6.961,3.937,9.504l73.833,73.842L3.93,242.455
			c-5.239,5.249-5.239,13.774,0,19.002c2.535,2.551,5.911,3.932,9.501,3.932s6.966-1.401,9.512-3.932l85.776-85.775
			C113.946,170.437,113.946,161.913,108.713,156.676z M101.112,168.082l-85.781,85.774c-0.535,0.535-1.223,0.781-1.905,0.781
			c-0.683,0-1.375-0.262-1.9-0.781c-1.05-1.039-1.05-2.751,0-3.8L95.4,166.175L13.966,84.733c-1.049-1.05-1.049-2.753,0-3.8
			c1.04-1.05,2.751-1.05,3.801,0l83.345,83.344C102.161,165.328,102.161,167.041,101.112,168.082z"/>
		<path d="M219.775,156.676l-83.34-83.35c-2.546-2.539-5.921-3.925-9.512-3.925c-3.59,0-6.965,1.399-9.501,3.925
			c-2.552,2.548-3.937,5.924-3.937,9.514c0,3.591,1.396,6.961,3.937,9.504l73.832,73.847l-76.258,76.264
			c-5.25,5.249-5.25,13.774,0,19.002c2.536,2.551,5.911,3.932,9.501,3.932c3.591,0,6.966-1.401,9.513-3.932l85.771-85.775
			C225.019,170.437,225.019,161.913,219.775,156.676z M212.174,168.082l-85.771,85.774c-0.535,0.535-1.223,0.781-1.906,0.781
			c-0.682,0-1.375-0.262-1.899-0.781c-1.05-1.039-1.05-2.751,0-3.8l83.874-83.881l-81.438-81.442c-1.05-1.05-1.05-2.753,0-3.8
			c1.039-1.05,2.75-1.05,3.801,0l83.34,83.344C213.213,165.328,213.213,167.041,212.174,168.082z"/>
		<path d="M247.492,73.327c-2.542-2.539-5.921-3.925-9.513-3.925c-3.591,0-6.962,1.399-9.507,3.925
			c-2.54,2.548-3.932,5.924-3.932,9.514c0,3.591,1.407,6.961,3.932,9.504l73.849,73.847l-76.259,76.264
			c-5.248,5.249-5.248,13.774,0,19.002c2.537,2.551,5.916,3.932,9.508,3.932c3.591,0,6.96-1.401,9.507-3.932l85.779-85.775
			c5.245-5.244,5.245-13.769,0-19.005L247.492,73.327z M323.25,168.082l-85.784,85.774c-0.535,0.535-1.219,0.781-1.906,0.781
			c-0.683,0-1.376-0.262-1.9-0.781c-1.05-1.039-1.05-2.751,0-3.8l83.875-83.881L236.1,84.733c-1.044-1.05-1.044-2.753,0-3.8
			c1.044-1.05,2.756-1.05,3.797,0l83.354,83.344C324.291,165.328,324.291,167.041,323.25,168.082z"/>
	</g>
</g>
</svg>