<?xml version="1.0" encoding="UTF-8" standalone="no"?>
<!DOCTYPE svg PUBLIC "-//W3C//DTD SVG 1.1//EN" "http://www.w3.org/Graphics/SVG/1.1/DTD/svg11.dtd">
<svg xmlns="http://www.w3.org/2000/svg" version="1.1" viewBox="0.00 0.00 500.00 500.00">
<g stroke-width="2.00" fill="none" stroke-linecap="butt">
<path stroke="#7a3531" vector-effect="non-scaling-stroke" d="
  M 52.28 410.85
  Q 138.57 451.59 217.89 489.53
  Q 231.08 495.84 236.11 497.33
  Q 254.32 502.70 272.60 494.03
  Q 360.95 452.09 446.42 411.69
  Q 458.71 405.88 463.72 401.94
  C 476.09 392.19 483.22 378.19 483.18 362.17
  Q 482.94 253.35 483.22 149.22
  Q 483.26 135.48 482.41 130.28
  C 479.94 115.18 469.66 101.21 455.54 94.49
  Q 366.49 52.08 272.39 7.37
  Q 249.81 -3.36 226.90 7.53
  Q 142.06 47.86 50.82 91.00
  Q 40.28 95.99 35.79 99.43
  C 24.43 108.15 16.54 122.11 16.56 136.80
  Q 16.72 248.29 16.74 363.30
  C 16.74 381.31 27.33 397.91 43.15 406.27
  Q 47.83 408.75 52.28 410.85"
/>
<path stroke="#767678" vector-effect="non-scaling-stroke" d="
  M 306.54 37.39
  Q 287.26 28.19 268.12 19.13
  Q 260.75 15.65 256.13 14.85
  C 248.38 13.52 240.93 14.67 233.71 18.10
  Q 141.92 61.68 50.11 105.19
  C 36.76 111.51 28.72 124.86 28.73 139.68
  Q 28.81 250.23 28.99 361.14
  Q 29.02 379.38 41.81 390.36
  Q 46.33 394.24 58.76 400.14
  Q 143.42 440.30 226.45 479.97
  Q 238.57 485.76 244.31 486.69
  Q 255.36 488.47 266.89 482.97
  Q 353.99 441.46 444.15 398.73
  Q 453.65 394.23 458.25 390.22
  Q 471.07 379.08 471.04 360.10
  Q 470.88 253.85 471.09 148.13
  Q 471.12 135.51 469.73 129.97
  Q 466.97 118.92 457.87 110.80
  Q 454.16 107.49 442.93 102.17
  Q 373.71 69.40 306.54 37.39"
/>
<path stroke="#767678" vector-effect="non-scaling-stroke" d="
  M 417.87 179.74
  A 129.67 129.67 0.0 0 0 288.20 50.07
  A 129.67 129.67 0.0 0 0 158.53 179.74
  A 129.67 129.67 0.0 0 0 288.20 309.41
  A 129.67 129.67 0.0 0 0 417.87 179.74"
/>
<path stroke="#767678" vector-effect="non-scaling-stroke" d="
  M 170.82 304.30
  L 189.44 285.69
  A 0.45 0.45 0.0 0 0 189.44 285.06
  L 183.07 278.69
  Q 182.63 278.25 182.19 278.69
  L 163.69 297.19
  Q 163.26 297.61 162.77 297.27
  Q 151.31 289.40 137.28 292.30
  Q 128.51 294.12 122.80 299.81
  Q 95.15 327.38 68.06 354.56
  Q 63.68 358.95 60.93 367.15
  C 59.52 371.37 59.78 377.54 60.22 381.89
  C 61.49 394.51 74.56 407.06 87.27 407.94
  Q 93.08 408.34 97.62 407.75
  Q 107.13 406.51 115.08 398.50
  Q 137.02 376.40 162.56 351.06
  Q 169.85 343.83 170.98 341.94
  Q 182.03 323.46 170.72 305.16
  Q 170.43 304.69 170.82 304.30"
/>
<path stroke="#767678" vector-effect="non-scaling-stroke" d="
  M 407.81 179.75
  A 119.60 119.60 0.0 0 0 288.21 60.15
  A 119.60 119.60 0.0 0 0 168.61 179.75
  A 119.60 119.60 0.0 0 0 288.21 299.35
  A 119.60 119.60 0.0 0 0 407.81 179.75"
/>
<path stroke="#767678" vector-effect="non-scaling-stroke" d="
  M 322.73 98.59
  Q 338.09 104.97 349.85 116.92
  A 0.54 0.54 0.0 0 0 350.62 116.92
  L 357.18 110.23
  Q 357.37 110.03 357.17 109.84
  C 350.96 103.87 343.95 98.26 336.45 94.14
  Q 303.36 75.96 266.92 83.54
  Q 239.87 89.17 218.45 109.64
  Q 218.00 110.07 218.44 110.51
  L 224.69 116.82
  Q 225.11 117.25 225.54 116.83
  Q 245.37 97.53 271.27 93.05
  Q 298.20 88.38 322.73 98.59"
/>
<path stroke="#f0aba9" vector-effect="non-scaling-stroke" d="
  M 279.23 139.32
  L 268.82 155.36"
/>
<path stroke="#767678" vector-effect="non-scaling-stroke" d="
  M 268.82 155.36
  Q 268.18 155.56 267.28 156.36"
/>
<path stroke="#f1d294" vector-effect="non-scaling-stroke" d="
  M 267.28 156.36
  Q 251.26 153.94 243.06 167.97"
/>
<path stroke="#f0aba9" vector-effect="non-scaling-stroke" d="
  M 243.06 167.97
  L 221.96 161.14"
/>
<path stroke="#f1d294" vector-effect="non-scaling-stroke" d="
  M 221.96 161.14
  Q 222.42 150.18 213.55 146.46
  Q 211.06 145.41 207.77 145.15
  C 201.91 144.68 196.88 145.74 193.20 150.84
  C 189.29 156.25 188.70 164.46 191.95 170.21
  Q 197.35 179.75 210.00 177.53
  Q 216.41 176.40 219.39 170.85"
/>
<path stroke="#f0aba9" vector-effect="non-scaling-stroke" d="
  M 219.39 170.85
  L 240.66 178.13"
/>
<path stroke="#f1d294" vector-effect="non-scaling-stroke" d="
  M 240.66 178.13
  Q 240.70 186.95 246.45 193.15"
/>
<path stroke="#f0aba9" vector-effect="non-scaling-stroke" d="
  M 246.45 193.15
  Q 246.95 193.37 246.33 194.08
  Q 238.30 203.16 230.75 212.75"
/>
<path stroke="#767678" vector-effect="non-scaling-stroke" d="
  M 230.75 212.75
  Q 230.22 212.88 229.94 213.30"
/>
<path stroke="#c1dec0" vector-effect="non-scaling-stroke" d="
  M 229.94 213.30
  Q 228.07 213.00 226.15 212.76
  Q 218.09 211.73 212.77 217.24
  C 203.25 227.11 209.92 242.82 223.07 243.86
  C 235.43 244.84 243.24 231.90 238.08 221.17"
/>
<path stroke="#767678" vector-effect="non-scaling-stroke" d="
  M 238.08 221.17
  L 237.76 219.06"
/>
<path stroke="#f0aba9" vector-effect="non-scaling-stroke" d="
  M 237.76 219.06
  L 253.60 200.30"
/>
<path stroke="#767678" vector-effect="non-scaling-stroke" d="
  M 253.60 200.30
  Q 254.32 201.48 255.82 199.43"
/>
<path stroke="#f1d294" vector-effect="non-scaling-stroke" d="
  M 255.82 199.43
  Q 267.11 202.69 276.48 195.80"
/>
<path stroke="#767678" vector-effect="non-scaling-stroke" d="
  M 276.48 195.80
  Q 278.06 196.38 278.54 195.12"
/>
<path stroke="#f0aba9" vector-effect="non-scaling-stroke" d="
  M 278.54 195.12
  L 309.55 212.88"
/>
<path stroke="#767678" vector-effect="non-scaling-stroke" d="
  M 309.55 212.88
  L 311.16 214.28"
/>
<path stroke="#c1dec0" vector-effect="non-scaling-stroke" d="
  M 311.16 214.28
  Q 310.93 219.02 313.57 222.98"
/>
<path stroke="#f0aba9" vector-effect="non-scaling-stroke" d="
  M 313.57 222.98
  L 299.34 235.47"
/>
<path stroke="#767678" vector-effect="non-scaling-stroke" d="
  M 299.34 235.47
  L 298.20 235.84"
/>
<path stroke="#f1d294" vector-effect="non-scaling-stroke" d="
  M 298.20 235.84
  Q 297.76 236.13 297.49 236.00
  Q 290.09 232.51 283.59 237.14
  C 276.57 242.14 276.45 252.33 282.94 257.88
  C 288.02 262.23 295.31 261.95 300.33 257.45
  Q 305.90 252.47 304.19 243.78"
/>
<path stroke="#767678" vector-effect="non-scaling-stroke" d="
  M 304.19 243.78
  Q 305.03 242.82 304.92 241.60"
/>
<path stroke="#f0aba9" vector-effect="non-scaling-stroke" d="
  M 304.92 241.60
  L 318.54 228.35"
/>
<path stroke="#c1dec0" vector-effect="non-scaling-stroke" d="
  M 318.54 228.35
  Q 324.29 232.65 331.25 231.65
  C 335.34 231.06 341.34 228.15 343.28 224.13
  Q 343.49 223.71 344.08 223.62"
/>
<path stroke="#767678" vector-effect="non-scaling-stroke" d="
  M 344.08 223.62
  Q 344.82 223.50 345.29 222.34"
/>
<path stroke="#f0aba9" vector-effect="non-scaling-stroke" d="
  M 345.29 222.34
  L 365.00 224.76"
/>
<path stroke="#767678" vector-effect="non-scaling-stroke" d="
  M 365.00 224.76
  L 366.55 225.46"
/>
<path stroke="#f1d294" vector-effect="non-scaling-stroke" d="
  M 366.55 225.46
  Q 368.95 232.35 375.65 233.70
  C 382.81 235.15 389.80 230.53 390.27 223.00
  Q 390.80 214.49 384.02 210.90
  C 377.66 207.53 370.27 210.15 367.03 216.52
  Q 366.89 216.79 366.29 216.94"
/>
<path stroke="#767678" vector-effect="non-scaling-stroke" d="
  M 366.29 216.94
  L 365.78 217.11"
/>
<path stroke="#f0aba9" vector-effect="non-scaling-stroke" d="
  M 365.78 217.11
  L 346.71 214.52"
/>
<path stroke="#c1dec0" vector-effect="non-scaling-stroke" d="
  M 346.71 214.52
  Q 345.73 198.44 329.66 196.02"
/>
<path stroke="#767678" vector-effect="non-scaling-stroke" d="
  M 329.66 196.02
  Q 329.41 195.02 328.50 195.36"
/>
<path stroke="#f0aba9" vector-effect="non-scaling-stroke" d="
  M 328.50 195.36
  Q 326.47 189.82 325.23 184.25
  Q 324.82 182.41 325.16 180.79"
/>
<path stroke="#767678" vector-effect="non-scaling-stroke" d="
  M 325.16 180.79
  Q 325.69 180.44 325.84 179.81"
/>
<path stroke="#f1d294" vector-effect="non-scaling-stroke" d="
  M 325.84 179.81
  Q 330.25 175.68 330.66 170.98
  Q 330.97 167.40 328.69 162.08
  Q 327.41 159.12 324.59 157.81
  C 317.88 154.69 312.14 155.33 307.04 161.07
  Q 304.40 164.04 304.46 167.88
  C 304.58 175.56 308.31 181.55 316.75 181.73"
/>
<path stroke="#767678" vector-effect="non-scaling-stroke" d="
  M 316.75 181.73
  Q 316.69 181.97 317.12 182.02"
/>
<path stroke="#f0aba9" vector-effect="non-scaling-stroke" d="
  M 317.12 182.02
  L 320.09 197.23"
/>
<path stroke="#767678" vector-effect="non-scaling-stroke" d="
  M 320.09 197.23
  Q 319.65 197.86 319.72 198.39"
/>
<path stroke="#c1dec0" vector-effect="non-scaling-stroke" d="
  M 319.72 198.39
  L 315.11 202.24"
/>
<path stroke="#767678" vector-effect="non-scaling-stroke" d="
  M 315.11 202.24
  Q 314.21 201.82 313.77 202.18"
/>
<path stroke="#f0aba9" vector-effect="non-scaling-stroke" d="
  M 313.77 202.18
  C 304.29 196.62 294.94 190.47 285.17 185.60
  Q 284.96 185.50 284.91 185.35
  Q 284.82 185.15 284.92 184.96"
/>
<path stroke="#767678" vector-effect="non-scaling-stroke" d="
  M 284.92 184.96
  Q 284.56 184.28 284.57 183.49"
/>
<path stroke="#f1d294" vector-effect="non-scaling-stroke" d="
  M 284.57 183.49
  Q 287.26 170.52 277.83 161.68"
/>
<path stroke="#767678" vector-effect="non-scaling-stroke" d="
  M 277.83 161.68
  Q 278.94 160.62 277.80 159.19"
/>
<path stroke="#f0aba9" vector-effect="non-scaling-stroke" d="
  M 277.80 159.19
  L 287.42 143.81
  A 0.34 0.34 0.0 0 1 287.71 143.65
  Q 287.84 143.65 287.96 143.68"
/>
<path stroke="#767678" vector-effect="non-scaling-stroke" d="
  M 287.96 143.68
  Q 288.69 143.99 289.27 143.37"
/>
<path stroke="#c1dec0" vector-effect="non-scaling-stroke" d="
  M 289.27 143.37
  Q 297.53 144.12 302.76 138.38
  C 304.51 136.46 306.18 134.81 306.42 132.02
  C 307.11 124.08 304.85 116.16 297.00 112.77
  Q 291.81 110.53 285.68 112.04
  C 278.38 113.85 274.47 120.69 274.24 128.01
  Q 274.01 135.34 279.23 139.32"
/>
<path stroke="#4b6848" vector-effect="non-scaling-stroke" d="
  M 289.27 143.37
  Q 290.41 141.49 290.46 140.77
  C 290.84 135.35 287.35 134.05 282.72 134.28
  Q 282.15 134.31 281.98 134.86
  Q 281.86 135.27 282.01 135.81"
/>
<path stroke="#c59d78" vector-effect="non-scaling-stroke" d="
  M 282.01 135.81
  L 281.22 136.02"
/>
<path stroke="#c1dec0" vector-effect="non-scaling-stroke" d="
  M 281.22 136.02
  Q 276.67 126.89 282.76 118.71
  A 0.33 0.32 -71.8 0 0 282.50 118.19
  L 282.24 118.18
  Q 281.44 118.17 280.90 118.77
  Q 274.58 125.81 277.62 133.85
  Q 278.57 136.35 280.63 137.41"
/>
<path stroke="#c59d78" vector-effect="non-scaling-stroke" d="
  M 280.63 137.41
  L 279.23 139.32"
/>
<path stroke="#f0aba9" vector-effect="non-scaling-stroke" d="
  M 281.22 136.02
  Q 281.37 136.55 280.63 137.41"
/>
<path stroke="#7a3531" vector-effect="non-scaling-stroke" d="
  M 287.96 143.68
  C 287.05 142.27 288.17 140.31 288.03 138.81
  A 2.49 2.48 3.2 0 0 286.05 136.61
  L 282.01 135.81"
/>
<path stroke="#7a3531" vector-effect="non-scaling-stroke" d="
  M 277.80 159.19
  Q 274.01 156.22 268.82 155.36"
/>
<path stroke="#7b5c1c" vector-effect="non-scaling-stroke" d="
  M 277.83 161.68
  L 267.28 156.36"
/>
<path stroke="#7b5c1c" vector-effect="non-scaling-stroke" d="
  M 284.57 183.49
  Q 277.06 181.09 274.00 189.28
  Q 273.44 190.78 274.40 191.39"
/>
<path stroke="#f5914c" vector-effect="non-scaling-stroke" d="
  M 274.40 191.39
  L 274.27 192.45"
/>
<path stroke="#7b5c1c" vector-effect="non-scaling-stroke" d="
  M 274.27 192.45
  Q 273.51 192.91 274.02 193.46
  Q 275.03 194.56 276.48 195.80"
/>
<path stroke="#7b5c1c" vector-effect="non-scaling-stroke" d="
  M 255.82 199.43
  Q 258.47 190.40 249.75 190.03
  Q 248.31 189.96 248.50 191.77"
/>
<path stroke="#f5914c" vector-effect="non-scaling-stroke" d="
  M 248.50 191.77
  Q 247.78 193.12 246.45 193.15"
/>
<path stroke="#f5914c" vector-effect="non-scaling-stroke" d="
  M 240.66 178.13
  Q 240.41 172.85 243.06 167.97"
/>
<path stroke="#7a3531" vector-effect="non-scaling-stroke" d="
  M 284.92 184.96
  Q 283.83 185.34 283.49 185.26
  Q 279.16 184.24 277.20 187.51
  Q 275.38 190.54 274.40 191.39"
/>
<path stroke="#7a3531" vector-effect="non-scaling-stroke" d="
  M 237.76 219.06
  Q 236.11 214.22 230.75 212.75"
/>
<path stroke="#7a3531" vector-effect="non-scaling-stroke" d="
  M 253.60 200.30
  Q 253.58 199.41 254.23 197.00
  C 255.31 193.01 251.43 192.13 248.50 191.77"
/>
<path stroke="#7a3531" vector-effect="non-scaling-stroke" d="
  M 313.77 202.18
  Q 309.78 206.39 309.55 212.88"
/>
<path stroke="#7a3531" vector-effect="non-scaling-stroke" d="
  M 278.54 195.12
  Q 277.51 192.93 274.27 192.45"
/>
<path stroke="#7a3531" vector-effect="non-scaling-stroke" d="
  M 218.13 160.54
  Q 213.01 163.73 215.48 168.99"
/>
<path stroke="#f5914c" vector-effect="non-scaling-stroke" d="
  M 221.96 161.14
  L 218.13 160.54"
/>
<path stroke="#7b5c1c" vector-effect="non-scaling-stroke" d="
  M 218.13 160.54
  Q 217.92 159.76 217.30 159.57
  Q 216.76 159.40 216.27 159.72
  C 212.71 162.01 210.63 166.72 214.01 170.14
  Q 214.37 170.50 214.85 170.35
  Q 215.57 170.11 215.48 168.99"
/>
<path stroke="#f5914c" vector-effect="non-scaling-stroke" d="
  M 215.48 168.99
  L 219.39 170.85"
/>
<path stroke="#4b6848" vector-effect="non-scaling-stroke" d="
  M 229.94 213.30
  Q 229.59 214.25 230.22 214.49
  Q 234.83 216.25 236.26 220.53
  Q 236.59 221.53 238.08 221.17"
/>
<path stroke="#c59d78" vector-effect="non-scaling-stroke" d="
  M 346.71 214.52
  C 344.92 214.49 342.91 213.78 341.45 214.16
  C 338.88 214.82 337.81 217.61 339.01 219.92"
/>
<path stroke="#4b6848" vector-effect="non-scaling-stroke" d="
  M 339.01 219.92
  C 339.31 222.38 342.04 223.11 344.08 223.62"
/>
<path stroke="#c59d78" vector-effect="non-scaling-stroke" d="
  M 318.54 228.35
  Q 319.73 226.73 320.36 226.62"
/>
<path stroke="#4b6848" vector-effect="non-scaling-stroke" d="
  M 320.36 226.62
  L 321.36 226.72
  Q 321.96 226.78 321.95 226.18
  Q 321.76 219.34 315.88 221.00"
/>
<path stroke="#c59d78" vector-effect="non-scaling-stroke" d="
  M 315.88 221.00
  L 313.57 222.98"
/>
<path stroke="#4b6848" vector-effect="non-scaling-stroke" d="
  M 311.16 214.28
  Q 311.93 210.72 312.80 207.29
  C 313.25 205.50 314.19 204.01 315.11 202.46
  Q 315.15 202.40 315.11 202.33
  Q 314.82 201.91 315.11 202.24"
/>
<path stroke="#7a3531" vector-effect="non-scaling-stroke" d="
  M 304.92 241.60
  Q 303.38 237.12 299.34 235.47"
/>
<path stroke="#7a3531" vector-effect="non-scaling-stroke" d="
  M 320.36 226.62
  Q 320.07 222.87 315.88 221.00"
/>
<path stroke="#7a3531" vector-effect="non-scaling-stroke" d="
  M 365.78 217.11
  Q 363.88 221.00 365.00 224.76"
/>
<path stroke="#7a3531" vector-effect="non-scaling-stroke" d="
  M 345.29 222.34
  Q 345.24 222.13 345.13 221.96
  Q 345.03 221.80 344.81 221.74
  Q 341.97 220.86 339.01 219.92"
/>
<path stroke="#4b6848" vector-effect="non-scaling-stroke" d="
  M 329.66 196.02
  C 328.99 200.82 322.62 200.72 319.72 198.39"
/>
<path stroke="#7a3531" vector-effect="non-scaling-stroke" d="
  M 328.50 195.36
  Q 325.70 199.28 320.09 197.23"
/>
<path stroke="#7b5c1c" vector-effect="non-scaling-stroke" d="
  M 298.20 235.84
  C 298.19 236.35 298.47 236.88 298.91 237.15
  Q 302.10 239.08 303.04 242.62
  Q 303.17 243.11 303.60 243.39
  L 304.19 243.78"
/>
<path stroke="#7b5c1c" vector-effect="non-scaling-stroke" d="
  M 366.55 225.46
  L 367.15 217.49
  Q 367.18 216.98 366.68 216.91
  Q 366.50 216.88 366.29 216.94"
/>
<path stroke="#7a3531" vector-effect="non-scaling-stroke" d="
  M 325.16 180.79
  Q 321.37 177.85 318.47 181.66
  Q 318.18 182.04 317.91 182.13
  Q 317.49 182.27 317.12 182.02"
/>
<path stroke="#7b5c1c" vector-effect="non-scaling-stroke" d="
  M 325.84 179.81
  C 323.22 175.49 317.99 177.57 316.75 181.73"
/>
<path stroke="#f1d294" vector-effect="non-scaling-stroke" d="
  M 207.80 147.86
  Q 209.33 147.69 207.91 147.11
  Q 206.59 146.57 205.12 146.79
  Q 198.25 147.81 195.30 153.34
  C 193.38 156.95 192.49 161.41 195.10 164.90
  Q 195.33 165.22 195.71 165.32
  A 0.59 0.59 0.0 0 0 196.45 164.78
  C 196.63 161.54 195.94 157.77 197.32 154.82
  Q 200.14 148.73 207.80 147.86"
/>
<path stroke="#f1d294" vector-effect="non-scaling-stroke" d="
  M 199.81 170.29
  A 1.43 1.43 0.0 0 0 198.38 168.86
  A 1.43 1.43 0.0 0 0 196.95 170.29
  A 1.43 1.43 0.0 0 0 198.38 171.72
  A 1.43 1.43 0.0 0 0 199.81 170.29"
/>
<path stroke="#f1d294" vector-effect="non-scaling-stroke" d="
  M 247.04 177.71
  C 247.87 171.57 250.00 166.57 255.01 162.71
  Q 255.17 162.58 255.06 162.41
  L 254.90 162.20
  Q 254.65 161.83 254.26 162.05
  Q 247.00 166.05 245.04 174.90
  Q 244.63 176.72 245.45 178.04
  Q 246.71 180.10 247.04 177.71"
/>
<path stroke="#f1d294" vector-effect="non-scaling-stroke" d="
  M 249.82 183.51
  A 1.44 1.44 0.0 0 0 248.38 182.07
  A 1.44 1.44 0.0 0 0 246.94 183.51
  A 1.44 1.44 0.0 0 0 248.38 184.95
  A 1.44 1.44 0.0 0 0 249.82 183.51"
/>
<path stroke="#f1d294" vector-effect="non-scaling-stroke" d="
  M 312.96 159.43
  C 309.89 161.15 306.26 166.64 307.94 170.05
  Q 308.76 171.72 309.05 169.88
  Q 310.10 163.35 313.69 160.12
  Q 313.96 159.87 313.84 159.53
  Q 313.77 159.35 313.46 159.32
  Q 313.19 159.30 312.96 159.43"
/>
<path stroke="#f1d294" vector-effect="non-scaling-stroke" d="
  M 313.17 175.95
  L 311.54 173.45
  A 0.26 0.26 0.0 0 0 311.06 173.54
  Q 310.65 175.80 312.61 176.62
  Q 313.99 177.21 313.17 175.95"
/>
<path stroke="#c1dec0" vector-effect="non-scaling-stroke" d="
  M 319.35 202.49
  C 316.16 205.21 313.53 214.73 316.44 217.53
  A 0.52 0.51 38.0 0 0 317.22 217.44
  Q 318.14 216.00 318.01 214.28
  Q 317.51 208.14 320.31 203.29
  Q 322.14 200.12 319.35 202.49"
/>
<path stroke="#f1d294" vector-effect="non-scaling-stroke" d="
  M 374.64 212.75
  C 371.14 216.18 369.35 221.56 370.78 226.26
  Q 371.10 227.31 371.92 228.06
  Q 372.53 228.61 373.31 228.55
  A 0.65 0.65 0.0 0 0 373.89 227.69
  Q 371.06 219.44 375.78 212.97
  A 0.23 0.23 0.0 0 0 375.63 212.61
  L 375.31 212.55
  Q 374.93 212.48 374.64 212.75"
/>
<path stroke="#f1d294" vector-effect="non-scaling-stroke" d="
  M 376.6234 232.5326
  A 1.45 1.28 126.7 0 0 378.5163 232.1350
  A 1.45 1.28 126.7 0 0 378.3566 230.2074
  A 1.45 1.28 126.7 0 0 376.4637 230.6050
  A 1.45 1.28 126.7 0 0 376.6234 232.5326"
/>
<path stroke="#c1dec0" vector-effect="non-scaling-stroke" d="
  M 219.22 217.01
  C 213.38 219.68 212.35 227.34 213.74 232.93
  Q 214.09 234.30 215.18 235.20
  Q 216.19 236.02 217.14 235.61
  Q 218.13 235.18 217.62 234.23
  C 214.91 229.23 214.92 221.57 219.86 217.81
  A 0.47 0.47 0.0 0 0 219.74 216.99
  Q 219.47 216.89 219.22 217.01"
/>
<path stroke="#c1dec0" vector-effect="non-scaling-stroke" d="
  M 222.13 237.89
  A 1.20 1.20 0.0 0 0 220.93 236.69
  A 1.20 1.20 0.0 0 0 219.73 237.89
  A 1.20 1.20 0.0 0 0 220.93 239.09
  A 1.20 1.20 0.0 0 0 222.13 237.89"
/>
<path stroke="#f1d294" vector-effect="non-scaling-stroke" d="
  M 287.56 238.39
  C 282.58 240.39 280.40 247.64 281.69 252.25
  Q 282.54 255.30 285.42 255.03
  A 0.59 0.59 0.0 0 0 285.89 254.17
  C 285.11 252.66 284.26 251.42 284.22 249.64
  Q 284.13 245.31 285.88 241.79
  C 286.43 240.68 287.22 240.05 288.09 239.24
  Q 290.09 237.38 287.56 238.39"
/>
<path stroke="#f1d294" vector-effect="non-scaling-stroke" d="
  M 291.31 256.89
  A 1.39 1.39 0.0 0 0 289.92 255.50
  A 1.39 1.39 0.0 0 0 288.53 256.89
  A 1.39 1.39 0.0 0 0 289.92 258.28
  A 1.39 1.39 0.0 0 0 291.31 256.89"
/>
<path stroke="#767678" vector-effect="non-scaling-stroke" d="
  M 160.1826 338.8321
  A 21.49 21.49 0.0 0 0 160.1296 308.4407
  L 159.3221 307.6360
  A 21.49 21.49 0.0 0 0 128.9307 307.6891
  L 75.8774 360.9279
  A 21.49 21.49 0.0 0 0 75.9304 391.3193
  L 76.7379 392.1240
  A 21.49 21.49 0.0 0 0 107.1293 392.0709
  L 160.1826 338.8321"
/>
</g>
<path fill="#f46a61" d="
  M 0.00 0.00
  L 500.00 0.00
  L 500.00 500.00
  L 0.00 500.00
  L 0.00 0.00
  Z
  M 52.28 410.85
  Q 138.57 451.59 217.89 489.53
  Q 231.08 495.84 236.11 497.33
  Q 254.32 502.70 272.60 494.03
  Q 360.95 452.09 446.42 411.69
  Q 458.71 405.88 463.72 401.94
  C 476.09 392.19 483.22 378.19 483.18 362.17
  Q 482.94 253.35 483.22 149.22
  Q 483.26 135.48 482.41 130.28
  C 479.94 115.18 469.66 101.21 455.54 94.49
  Q 366.49 52.08 272.39 7.37
  Q 249.81 -3.36 226.90 7.53
  Q 142.06 47.86 50.82 91.00
  Q 40.28 95.99 35.79 99.43
  C 24.43 108.15 16.54 122.11 16.56 136.80
  Q 16.72 248.29 16.74 363.30
  C 16.74 381.31 27.33 397.91 43.15 406.27
  Q 47.83 408.75 52.28 410.85
  Z"
/>
<path fill="#000000" d="
  M 52.28 410.85
  Q 47.83 408.75 43.15 406.27
  C 27.33 397.91 16.74 381.31 16.74 363.30
  Q 16.72 248.29 16.56 136.80
  C 16.54 122.11 24.43 108.15 35.79 99.43
  Q 40.28 95.99 50.82 91.00
  Q 142.06 47.86 226.90 7.53
  Q 249.81 -3.36 272.39 7.37
  Q 366.49 52.08 455.54 94.49
  C 469.66 101.21 479.94 115.18 482.41 130.28
  Q 483.26 135.48 483.22 149.22
  Q 482.94 253.35 483.18 362.17
  C 483.22 378.19 476.09 392.19 463.72 401.94
  Q 458.71 405.88 446.42 411.69
  Q 360.95 452.09 272.60 494.03
  Q 254.32 502.70 236.11 497.33
  Q 231.08 495.84 217.89 489.53
  Q 138.57 451.59 52.28 410.85
  Z
  M 306.54 37.39
  Q 287.26 28.19 268.12 19.13
  Q 260.75 15.65 256.13 14.85
  C 248.38 13.52 240.93 14.67 233.71 18.10
  Q 141.92 61.68 50.11 105.19
  C 36.76 111.51 28.72 124.86 28.73 139.68
  Q 28.81 250.23 28.99 361.14
  Q 29.02 379.38 41.81 390.36
  Q 46.33 394.24 58.76 400.14
  Q 143.42 440.30 226.45 479.97
  Q 238.57 485.76 244.31 486.69
  Q 255.36 488.47 266.89 482.97
  Q 353.99 441.46 444.15 398.73
  Q 453.65 394.23 458.25 390.22
  Q 471.07 379.08 471.04 360.10
  Q 470.88 253.85 471.09 148.13
  Q 471.12 135.51 469.73 129.97
  Q 466.97 118.92 457.87 110.80
  Q 454.16 107.49 442.93 102.17
  Q 373.71 69.40 306.54 37.39
  Z"
/>
<path fill="#ebecf0" d="
  M 306.54 37.39
  Q 373.71 69.40 442.93 102.17
  Q 454.16 107.49 457.87 110.80
  Q 466.97 118.92 469.73 129.97
  Q 471.12 135.51 471.09 148.13
  Q 470.88 253.85 471.04 360.10
  Q 471.07 379.08 458.25 390.22
  Q 453.65 394.23 444.15 398.73
  Q 353.99 441.46 266.89 482.97
  Q 255.36 488.47 244.31 486.69
  Q 238.57 485.76 226.45 479.97
  Q 143.42 440.30 58.76 400.14
  Q 46.33 394.24 41.81 390.36
  Q 29.02 379.38 28.99 361.14
  Q 28.81 250.23 28.73 139.68
  C 28.72 124.86 36.76 111.51 50.11 105.19
  Q 141.92 61.68 233.71 18.10
  C 240.93 14.67 248.38 13.52 256.13 14.85
  Q 260.75 15.65 268.12 19.13
  Q 287.26 28.19 306.54 37.39
  Z
  M 417.87 179.74
  A 129.67 129.67 0.0 0 0 288.20 50.07
  A 129.67 129.67 0.0 0 0 158.53 179.74
  A 129.67 129.67 0.0 0 0 288.20 309.41
  A 129.67 129.67 0.0 0 0 417.87 179.74
  Z
  M 170.82 304.30
  L 189.44 285.69
  A 0.45 0.45 0.0 0 0 189.44 285.06
  L 183.07 278.69
  Q 182.63 278.25 182.19 278.69
  L 163.69 297.19
  Q 163.26 297.61 162.77 297.27
  Q 151.31 289.40 137.28 292.30
  Q 128.51 294.12 122.80 299.81
  Q 95.15 327.38 68.06 354.56
  Q 63.68 358.95 60.93 367.15
  C 59.52 371.37 59.78 377.54 60.22 381.89
  C 61.49 394.51 74.56 407.06 87.27 407.94
  Q 93.08 408.34 97.62 407.75
  Q 107.13 406.51 115.08 398.50
  Q 137.02 376.40 162.56 351.06
  Q 169.85 343.83 170.98 341.94
  Q 182.03 323.46 170.72 305.16
  Q 170.43 304.69 170.82 304.30
  Z"
/>
<path fill="#000000" d="
  M 417.87 179.74
  A 129.67 129.67 0.0 0 1 288.20 309.41
  A 129.67 129.67 0.0 0 1 158.53 179.74
  A 129.67 129.67 0.0 0 1 288.20 50.07
  A 129.67 129.67 0.0 0 1 417.87 179.74
  Z
  M 407.81 179.75
  A 119.60 119.60 0.0 0 0 288.21 60.15
  A 119.60 119.60 0.0 0 0 168.61 179.75
  A 119.60 119.60 0.0 0 0 288.21 299.35
  A 119.60 119.60 0.0 0 0 407.81 179.75
  Z"
/>
<path fill="#ebecf0" d="
  M 407.81 179.75
  A 119.60 119.60 0.0 0 1 288.21 299.35
  A 119.60 119.60 0.0 0 1 168.61 179.75
  A 119.60 119.60 0.0 0 1 288.21 60.15
  A 119.60 119.60 0.0 0 1 407.81 179.75
  Z
  M 322.73 98.59
  Q 338.09 104.97 349.85 116.92
  A 0.54 0.54 0.0 0 0 350.62 116.92
  L 357.18 110.23
  Q 357.37 110.03 357.17 109.84
  C 350.96 103.87 343.95 98.26 336.45 94.14
  Q 303.36 75.96 266.92 83.54
  Q 239.87 89.17 218.45 109.64
  Q 218.00 110.07 218.44 110.51
  L 224.69 116.82
  Q 225.11 117.25 225.54 116.83
  Q 245.37 97.53 271.27 93.05
  Q 298.20 88.38 322.73 98.59
  Z
  M 279.23 139.32
  L 268.82 155.36
  Q 268.18 155.56 267.28 156.36
  Q 251.26 153.94 243.06 167.97
  L 221.96 161.14
  Q 222.42 150.18 213.55 146.46
  Q 211.06 145.41 207.77 145.15
  C 201.91 144.68 196.88 145.74 193.20 150.84
  C 189.29 156.25 188.70 164.46 191.95 170.21
  Q 197.35 179.75 210.00 177.53
  Q 216.41 176.40 219.39 170.85
  L 240.66 178.13
  Q 240.70 186.95 246.45 193.15
  Q 246.95 193.37 246.33 194.08
  Q 238.30 203.16 230.75 212.75
  Q 230.22 212.88 229.94 213.30
  Q 228.07 213.00 226.15 212.76
  Q 218.09 211.73 212.77 217.24
  C 203.25 227.11 209.92 242.82 223.07 243.86
  C 235.43 244.84 243.24 231.90 238.08 221.17
  L 237.76 219.06
  L 253.60 200.30
  Q 254.32 201.48 255.82 199.43
  Q 267.11 202.69 276.48 195.80
  Q 278.06 196.38 278.54 195.12
  L 309.55 212.88
  L 311.16 214.28
  Q 310.93 219.02 313.57 222.98
  L 299.34 235.47
  L 298.20 235.84
  Q 297.76 236.13 297.49 236.00
  Q 290.09 232.51 283.59 237.14
  C 276.57 242.14 276.45 252.33 282.94 257.88
  C 288.02 262.23 295.31 261.95 300.33 257.45
  Q 305.90 252.47 304.19 243.78
  Q 305.03 242.82 304.92 241.60
  L 318.54 228.35
  Q 324.29 232.65 331.25 231.65
  C 335.34 231.06 341.34 228.15 343.28 224.13
  Q 343.49 223.71 344.08 223.62
  Q 344.82 223.50 345.29 222.34
  L 365.00 224.76
  L 366.55 225.46
  Q 368.95 232.35 375.65 233.70
  C 382.81 235.15 389.80 230.53 390.27 223.00
  Q 390.80 214.49 384.02 210.90
  C 377.66 207.53 370.27 210.15 367.03 216.52
  Q 366.89 216.79 366.29 216.94
  L 365.78 217.11
  L 346.71 214.52
  Q 345.73 198.44 329.66 196.02
  Q 329.41 195.02 328.50 195.36
  Q 326.47 189.82 325.23 184.25
  Q 324.82 182.41 325.16 180.79
  Q 325.69 180.44 325.84 179.81
  Q 330.25 175.68 330.66 170.98
  Q 330.97 167.40 328.69 162.08
  Q 327.41 159.12 324.59 157.81
  C 317.88 154.69 312.14 155.33 307.04 161.07
  Q 304.40 164.04 304.46 167.88
  C 304.58 175.56 308.31 181.55 316.75 181.73
  Q 316.69 181.97 317.12 182.02
  L 320.09 197.23
  Q 319.65 197.86 319.72 198.39
  L 315.11 202.24
  Q 314.21 201.82 313.77 202.18
  C 304.29 196.62 294.94 190.47 285.17 185.60
  Q 284.96 185.50 284.91 185.35
  Q 284.82 185.15 284.92 184.96
  Q 284.56 184.28 284.57 183.49
  Q 287.26 170.52 277.83 161.68
  Q 278.94 160.62 277.80 159.19
  L 287.42 143.81
  A 0.34 0.34 0.0 0 1 287.71 143.65
  Q 287.84 143.65 287.96 143.68
  Q 288.69 143.99 289.27 143.37
  Q 297.53 144.12 302.76 138.38
  C 304.51 136.46 306.18 134.81 306.42 132.02
  C 307.11 124.08 304.85 116.16 297.00 112.77
  Q 291.81 110.53 285.68 112.04
  C 278.38 113.85 274.47 120.69 274.24 128.01
  Q 274.01 135.34 279.23 139.32
  Z"
/>
<path fill="#000000" d="
  M 322.73 98.59
  Q 298.20 88.38 271.27 93.05
  Q 245.37 97.53 225.54 116.83
  Q 225.11 117.25 224.69 116.82
  L 218.44 110.51
  Q 218.00 110.07 218.45 109.64
  Q 239.87 89.17 266.92 83.54
  Q 303.36 75.96 336.45 94.14
  C 343.95 98.26 350.96 103.87 357.17 109.84
  Q 357.37 110.03 357.18 110.23
  L 350.62 116.92
  A 0.54 0.54 0.0 0 1 349.85 116.92
  Q 338.09 104.97 322.73 98.59
  Z"
/>
<path fill="#96cf8f" d="
  M 289.27 143.37
  Q 290.41 141.49 290.46 140.77
  C 290.84 135.35 287.35 134.05 282.72 134.28
  Q 282.15 134.31 281.98 134.86
  Q 281.86 135.27 282.01 135.81
  L 281.22 136.02
  Q 276.67 126.89 282.76 118.71
  A 0.33 0.32 -71.8 0 0 282.50 118.19
  L 282.24 118.18
  Q 281.44 118.17 280.90 118.77
  Q 274.58 125.81 277.62 133.85
  Q 278.57 136.35 280.63 137.41
  L 279.23 139.32
  Q 274.01 135.34 274.24 128.01
  C 274.47 120.69 278.38 113.85 285.68 112.04
  Q 291.81 110.53 297.00 112.77
  C 304.85 116.16 307.11 124.08 306.42 132.02
  C 306.18 134.81 304.51 136.46 302.76 138.38
  Q 297.53 144.12 289.27 143.37
  Z"
/>
<path fill="#ebecf0" d="
  M 281.22 136.02
  Q 281.37 136.55 280.63 137.41
  Q 278.57 136.35 277.62 133.85
  Q 274.58 125.81 280.90 118.77
  Q 281.44 118.17 282.24 118.18
  L 282.50 118.19
  A 0.33 0.32 -71.8 0 1 282.76 118.71
  Q 276.67 126.89 281.22 136.02
  Z"
/>
<path fill="#000000" d="
  M 289.27 143.37
  Q 288.69 143.99 287.96 143.68
  C 287.05 142.27 288.17 140.31 288.03 138.81
  A 2.49 2.48 3.2 0 0 286.05 136.61
  L 282.01 135.81
  Q 281.86 135.27 281.98 134.86
  Q 282.15 134.31 282.72 134.28
  C 287.35 134.05 290.84 135.35 290.46 140.77
  Q 290.41 141.49 289.27 143.37
  Z"
/>
<path fill="#f46a61" d="
  M 282.01 135.81
  L 286.05 136.61
  A 2.49 2.48 3.2 0 1 288.03 138.81
  C 288.17 140.31 287.05 142.27 287.96 143.68
  Q 287.84 143.65 287.71 143.65
  A 0.34 0.34 0.0 0 0 287.42 143.81
  L 277.80 159.19
  Q 274.01 156.22 268.82 155.36
  L 279.23 139.32
  L 280.63 137.41
  Q 281.37 136.55 281.22 136.02
  L 282.01 135.81
  Z"
/>
<path fill="#f6b737" d="
  M 221.96 161.14
  L 218.13 160.54
  Q 217.92 159.76 217.30 159.57
  Q 216.76 159.40 216.27 159.72
  C 212.71 162.01 210.63 166.72 214.01 170.14
  Q 214.37 170.50 214.85 170.35
  Q 215.57 170.11 215.48 168.99
  L 219.39 170.85
  Q 216.41 176.40 210.00 177.53
  Q 197.35 179.75 191.95 170.21
  C 188.70 164.46 189.29 156.25 193.20 150.84
  C 196.88 145.74 201.91 144.68 207.77 145.15
  Q 211.06 145.41 213.55 146.46
  Q 222.42 150.18 221.96 161.14
  Z
  M 207.80 147.86
  Q 209.33 147.69 207.91 147.11
  Q 206.59 146.57 205.12 146.79
  Q 198.25 147.81 195.30 153.34
  C 193.38 156.95 192.49 161.41 195.10 164.90
  Q 195.33 165.22 195.71 165.32
  A 0.59 0.59 0.0 0 0 196.45 164.78
  C 196.63 161.54 195.94 157.77 197.32 154.82
  Q 200.14 148.73 207.80 147.86
  Z
  M 199.81 170.29
  A 1.43 1.43 0.0 0 0 198.38 168.86
  A 1.43 1.43 0.0 0 0 196.95 170.29
  A 1.43 1.43 0.0 0 0 198.38 171.72
  A 1.43 1.43 0.0 0 0 199.81 170.29
  Z"
/>
<path fill="#ebecf0" d="
  M 207.80 147.86
  Q 200.14 148.73 197.32 154.82
  C 195.94 157.77 196.63 161.54 196.45 164.78
  A 0.59 0.59 0.0 0 1 195.71 165.32
  Q 195.33 165.22 195.10 164.90
  C 192.49 161.41 193.38 156.95 195.30 153.34
  Q 198.25 147.81 205.12 146.79
  Q 206.59 146.57 207.91 147.11
  Q 209.33 147.69 207.80 147.86
  Z"
/>
<path fill="#000000" d="
  M 268.82 155.36
  Q 274.01 156.22 277.80 159.19
  Q 278.94 160.62 277.83 161.68
  L 267.28 156.36
  Q 268.18 155.56 268.82 155.36
  Z"
/>
<path fill="#f6b737" d="
  M 267.28 156.36
  L 277.83 161.68
  Q 287.26 170.52 284.57 183.49
  Q 277.06 181.09 274.00 189.28
  Q 273.44 190.78 274.40 191.39
  L 274.27 192.45
  Q 273.51 192.91 274.02 193.46
  Q 275.03 194.56 276.48 195.80
  Q 267.11 202.69 255.82 199.43
  Q 258.47 190.40 249.75 190.03
  Q 248.31 189.96 248.50 191.77
  Q 247.78 193.12 246.45 193.15
  Q 240.70 186.95 240.66 178.13
  Q 240.41 172.85 243.06 167.97
  Q 251.26 153.94 267.28 156.36
  Z
  M 247.04 177.71
  C 247.87 171.57 250.00 166.57 255.01 162.71
  Q 255.17 162.58 255.06 162.41
  L 254.90 162.20
  Q 254.65 161.83 254.26 162.05
  Q 247.00 166.05 245.04 174.90
  Q 244.63 176.72 245.45 178.04
  Q 246.71 180.10 247.04 177.71
  Z
  M 249.82 183.51
  A 1.44 1.44 0.0 0 0 248.38 182.07
  A 1.44 1.44 0.0 0 0 246.94 183.51
  A 1.44 1.44 0.0 0 0 248.38 184.95
  A 1.44 1.44 0.0 0 0 249.82 183.51
  Z"
/>
<path fill="#f6b737" d="
  M 325.84 179.81
  C 323.22 175.49 317.99 177.57 316.75 181.73
  C 308.31 181.55 304.58 175.56 304.46 167.88
  Q 304.40 164.04 307.04 161.07
  C 312.14 155.33 317.88 154.69 324.59 157.81
  Q 327.41 159.12 328.69 162.08
  Q 330.97 167.40 330.66 170.98
  Q 330.25 175.68 325.84 179.81
  Z
  M 312.96 159.43
  C 309.89 161.15 306.26 166.64 307.94 170.05
  Q 308.76 171.72 309.05 169.88
  Q 310.10 163.35 313.69 160.12
  Q 313.96 159.87 313.84 159.53
  Q 313.77 159.35 313.46 159.32
  Q 313.19 159.30 312.96 159.43
  Z
  M 313.17 175.95
  L 311.54 173.45
  A 0.26 0.26 0.0 0 0 311.06 173.54
  Q 310.65 175.80 312.61 176.62
  Q 313.99 177.21 313.17 175.95
  Z"
/>
<path fill="#ebecf0" d="
  M 307.94 170.05
  C 306.26 166.64 309.89 161.15 312.96 159.43
  Q 313.19 159.30 313.46 159.32
  Q 313.77 159.35 313.84 159.53
  Q 313.96 159.87 313.69 160.12
  Q 310.10 163.35 309.05 169.88
  Q 308.76 171.72 307.94 170.05
  Z"
/>
<path fill="#000000" d="
  M 218.13 160.54
  Q 213.01 163.73 215.48 168.99
  Q 215.57 170.11 214.85 170.35
  Q 214.37 170.50 214.01 170.14
  C 210.63 166.72 212.71 162.01 216.27 159.72
  Q 216.76 159.40 217.30 159.57
  Q 217.92 159.76 218.13 160.54
  Z"
/>
<path fill="#f46a61" d="
  M 218.13 160.54
  L 221.96 161.14
  L 243.06 167.97
  Q 240.41 172.85 240.66 178.13
  L 219.39 170.85
  L 215.48 168.99
  Q 213.01 163.73 218.13 160.54
  Z"
/>
<path fill="#ebecf0" d="
  M 255.01 162.71
  C 250.00 166.57 247.87 171.57 247.04 177.71
  Q 246.71 180.10 245.45 178.04
  Q 244.63 176.72 245.04 174.90
  Q 247.00 166.05 254.26 162.05
  Q 254.65 161.83 254.90 162.20
  L 255.06 162.41
  Q 255.17 162.58 255.01 162.71
  Z"
/>
<circle fill="#ebecf0" cx="198.38" cy="170.29" r="1.43"/>
<path fill="#ebecf0" d="
  M 311.54 173.45
  L 313.17 175.95
  Q 313.99 177.21 312.61 176.62
  Q 310.65 175.80 311.06 173.54
  A 0.26 0.26 0.0 0 1 311.54 173.45
  Z"
/>
<path fill="#000000" d="
  M 325.84 179.81
  Q 325.69 180.44 325.16 180.79
  Q 321.37 177.85 318.47 181.66
  Q 318.18 182.04 317.91 182.13
  Q 317.49 182.27 317.12 182.02
  Q 316.69 181.97 316.75 181.73
  C 317.99 177.57 323.22 175.49 325.84 179.81
  Z"
/>
<path fill="#f46a61" d="
  M 325.16 180.79
  Q 324.82 182.41 325.23 184.25
  Q 326.47 189.82 328.50 195.36
  Q 325.70 199.28 320.09 197.23
  L 317.12 182.02
  Q 317.49 182.27 317.91 182.13
  Q 318.18 182.04 318.47 181.66
  Q 321.37 177.85 325.16 180.79
  Z"
/>
<circle fill="#ebecf0" cx="248.38" cy="183.51" r="1.44"/>
<path fill="#000000" d="
  M 284.57 183.49
  Q 284.56 184.28 284.92 184.96
  Q 283.83 185.34 283.49 185.26
  Q 279.16 184.24 277.20 187.51
  Q 275.38 190.54 274.40 191.39
  Q 273.44 190.78 274.00 189.28
  Q 277.06 181.09 284.57 183.49
  Z"
/>
<path fill="#f46a61" d="
  M 284.92 184.96
  Q 284.82 185.15 284.91 185.35
  Q 284.96 185.50 285.17 185.60
  C 294.94 190.47 304.29 196.62 313.77 202.18
  Q 309.78 206.39 309.55 212.88
  L 278.54 195.12
  Q 277.51 192.93 274.27 192.45
  L 274.40 191.39
  Q 275.38 190.54 277.20 187.51
  Q 279.16 184.24 283.49 185.26
  Q 283.83 185.34 284.92 184.96
  Z"
/>
<path fill="#000000" d="
  M 255.82 199.43
  Q 254.32 201.48 253.60 200.30
  Q 253.58 199.41 254.23 197.00
  C 255.31 193.01 251.43 192.13 248.50 191.77
  Q 248.31 189.96 249.75 190.03
  Q 258.47 190.40 255.82 199.43
  Z"
/>
<path fill="#f46a61" d="
  M 248.50 191.77
  C 251.43 192.13 255.31 193.01 254.23 197.00
  Q 253.58 199.41 253.60 200.30
  L 237.76 219.06
  Q 236.11 214.22 230.75 212.75
  Q 238.30 203.16 246.33 194.08
  Q 246.95 193.37 246.45 193.15
  Q 247.78 193.12 248.50 191.77
  Z"
/>
<path fill="#000000" d="
  M 274.27 192.45
  Q 277.51 192.93 278.54 195.12
  Q 278.06 196.38 276.48 195.80
  Q 275.03 194.56 274.02 193.46
  Q 273.51 192.91 274.27 192.45
  Z"
/>
<path fill="#000000" d="
  M 328.50 195.36
  Q 329.41 195.02 329.66 196.02
  C 328.99 200.82 322.62 200.72 319.72 198.39
  Q 319.65 197.86 320.09 197.23
  Q 325.70 199.28 328.50 195.36
  Z"
/>
<path fill="#96cf8f" d="
  M 329.66 196.02
  Q 345.73 198.44 346.71 214.52
  C 344.92 214.49 342.91 213.78 341.45 214.16
  C 338.88 214.82 337.81 217.61 339.01 219.92
  C 339.31 222.38 342.04 223.11 344.08 223.62
  Q 343.49 223.71 343.28 224.13
  C 341.34 228.15 335.34 231.06 331.25 231.65
  Q 324.29 232.65 318.54 228.35
  Q 319.73 226.73 320.36 226.62
  L 321.36 226.72
  Q 321.96 226.78 321.95 226.18
  Q 321.76 219.34 315.88 221.00
  L 313.57 222.98
  Q 310.93 219.02 311.16 214.28
  Q 311.93 210.72 312.80 207.29
  C 313.25 205.50 314.19 204.01 315.11 202.46
  Q 315.15 202.40 315.11 202.33
  Q 314.82 201.91 315.11 202.24
  L 319.72 198.39
  C 322.62 200.72 328.99 200.82 329.66 196.02
  Z
  M 319.35 202.49
  C 316.16 205.21 313.53 214.73 316.44 217.53
  A 0.52 0.51 38.0 0 0 317.22 217.44
  Q 318.14 216.00 318.01 214.28
  Q 317.51 208.14 320.31 203.29
  Q 322.14 200.12 319.35 202.49
  Z"
/>
<path fill="#ebecf0" d="
  M 316.44 217.53
  C 313.53 214.73 316.16 205.21 319.35 202.49
  Q 322.14 200.12 320.31 203.29
  Q 317.51 208.14 318.01 214.28
  Q 318.14 216.00 317.22 217.44
  A 0.52 0.51 38.0 0 1 316.44 217.53
  Z"
/>
<path fill="#000000" d="
  M 313.77 202.18
  Q 314.21 201.82 315.11 202.24
  Q 314.82 201.91 315.11 202.33
  Q 315.15 202.40 315.11 202.46
  C 314.19 204.01 313.25 205.50 312.80 207.29
  Q 311.93 210.72 311.16 214.28
  L 309.55 212.88
  Q 309.78 206.39 313.77 202.18
  Z"
/>
<path fill="#f6b737" d="
  M 366.55 225.46
  L 367.15 217.49
  Q 367.18 216.98 366.68 216.91
  Q 366.50 216.88 366.29 216.94
  Q 366.89 216.79 367.03 216.52
  C 370.27 210.15 377.66 207.53 384.02 210.90
  Q 390.80 214.49 390.27 223.00
  C 389.80 230.53 382.81 235.15 375.65 233.70
  Q 368.95 232.35 366.55 225.46
  Z
  M 374.64 212.75
  C 371.14 216.18 369.35 221.56 370.78 226.26
  Q 371.10 227.31 371.92 228.06
  Q 372.53 228.61 373.31 228.55
  A 0.65 0.65 0.0 0 0 373.89 227.69
  Q 371.06 219.44 375.78 212.97
  A 0.23 0.23 0.0 0 0 375.63 212.61
  L 375.31 212.55
  Q 374.93 212.48 374.64 212.75
  Z
  M 376.6234 232.5326
  A 1.45 1.28 126.7 0 0 378.5163 232.1350
  A 1.45 1.28 126.7 0 0 378.3566 230.2074
  A 1.45 1.28 126.7 0 0 376.4637 230.6050
  A 1.45 1.28 126.7 0 0 376.6234 232.5326
  Z"
/>
<path fill="#96cf8f" d="
  M 229.94 213.30
  Q 229.59 214.25 230.22 214.49
  Q 234.83 216.25 236.26 220.53
  Q 236.59 221.53 238.08 221.17
  C 243.24 231.90 235.43 244.84 223.07 243.86
  C 209.92 242.82 203.25 227.11 212.77 217.24
  Q 218.09 211.73 226.15 212.76
  Q 228.07 213.00 229.94 213.30
  Z
  M 219.22 217.01
  C 213.38 219.68 212.35 227.34 213.74 232.93
  Q 214.09 234.30 215.18 235.20
  Q 216.19 236.02 217.14 235.61
  Q 218.13 235.18 217.62 234.23
  C 214.91 229.23 214.92 221.57 219.86 217.81
  A 0.47 0.47 0.0 0 0 219.74 216.99
  Q 219.47 216.89 219.22 217.01
  Z
  M 222.13 237.89
  A 1.20 1.20 0.0 0 0 220.93 236.69
  A 1.20 1.20 0.0 0 0 219.73 237.89
  A 1.20 1.20 0.0 0 0 220.93 239.09
  A 1.20 1.20 0.0 0 0 222.13 237.89
  Z"
/>
<path fill="#ebecf0" d="
  M 370.78 226.26
  C 369.35 221.56 371.14 216.18 374.64 212.75
  Q 374.93 212.48 375.31 212.55
  L 375.63 212.61
  A 0.23 0.23 0.0 0 1 375.78 212.97
  Q 371.06 219.44 373.89 227.69
  A 0.65 0.65 0.0 0 1 373.31 228.55
  Q 372.53 228.61 371.92 228.06
  Q 371.10 227.31 370.78 226.26
  Z"
/>
<path fill="#000000" d="
  M 230.75 212.75
  Q 236.11 214.22 237.76 219.06
  L 238.08 221.17
  Q 236.59 221.53 236.26 220.53
  Q 234.83 216.25 230.22 214.49
  Q 229.59 214.25 229.94 213.30
  Q 230.22 212.88 230.75 212.75
  Z"
/>
<path fill="#f46a61" d="
  M 346.71 214.52
  L 365.78 217.11
  Q 363.88 221.00 365.00 224.76
  L 345.29 222.34
  Q 345.24 222.13 345.13 221.96
  Q 345.03 221.80 344.81 221.74
  Q 341.97 220.86 339.01 219.92
  C 337.81 217.61 338.88 214.82 341.45 214.16
  C 342.91 213.78 344.92 214.49 346.71 214.52
  Z"
/>
<path fill="#ebecf0" d="
  M 213.74 232.93
  C 212.35 227.34 213.38 219.68 219.22 217.01
  Q 219.47 216.89 219.74 216.99
  A 0.47 0.47 0.0 0 1 219.86 217.81
  C 214.92 221.57 214.91 229.23 217.62 234.23
  Q 218.13 235.18 217.14 235.61
  Q 216.19 236.02 215.18 235.20
  Q 214.09 234.30 213.74 232.93
  Z"
/>
<path fill="#000000" d="
  M 365.78 217.11
  L 366.29 216.94
  Q 366.50 216.88 366.68 216.91
  Q 367.18 216.98 367.15 217.49
  L 366.55 225.46
  L 365.00 224.76
  Q 363.88 221.00 365.78 217.11
  Z"
/>
<path fill="#000000" d="
  M 339.01 219.92
  Q 341.97 220.86 344.81 221.74
  Q 345.03 221.80 345.13 221.96
  Q 345.24 222.13 345.29 222.34
  Q 344.82 223.50 344.08 223.62
  C 342.04 223.11 339.31 222.38 339.01 219.92
  Z"
/>
<path fill="#000000" d="
  M 320.36 226.62
  Q 320.07 222.87 315.88 221.00
  Q 321.76 219.34 321.95 226.18
  Q 321.96 226.78 321.36 226.72
  L 320.36 226.62
  Z"
/>
<path fill="#f46a61" d="
  M 315.88 221.00
  Q 320.07 222.87 320.36 226.62
  Q 319.73 226.73 318.54 228.35
  L 304.92 241.60
  Q 303.38 237.12 299.34 235.47
  L 313.57 222.98
  L 315.88 221.00
  Z"
/>
<ellipse fill="#ebecf0" cx="0.00" cy="0.00" transform="translate(377.49,231.37) rotate(126.7)" rx="1.45" ry="1.28"/>
<path fill="#f6b737" d="
  M 298.20 235.84
  C 298.19 236.35 298.47 236.88 298.91 237.15
  Q 302.10 239.08 303.04 242.62
  Q 303.17 243.11 303.60 243.39
  L 304.19 243.78
  Q 305.90 252.47 300.33 257.45
  C 295.31 261.95 288.02 262.23 282.94 257.88
  C 276.45 252.33 276.57 242.14 283.59 237.14
  Q 290.09 232.51 297.49 236.00
  Q 297.76 236.13 298.20 235.84
  Z
  M 287.56 238.39
  C 282.58 240.39 280.40 247.64 281.69 252.25
  Q 282.54 255.30 285.42 255.03
  A 0.59 0.59 0.0 0 0 285.89 254.17
  C 285.11 252.66 284.26 251.42 284.22 249.64
  Q 284.13 245.31 285.88 241.79
  C 286.43 240.68 287.22 240.05 288.09 239.24
  Q 290.09 237.38 287.56 238.39
  Z
  M 291.31 256.89
  A 1.39 1.39 0.0 0 0 289.92 255.50
  A 1.39 1.39 0.0 0 0 288.53 256.89
  A 1.39 1.39 0.0 0 0 289.92 258.28
  A 1.39 1.39 0.0 0 0 291.31 256.89
  Z"
/>
<path fill="#000000" d="
  M 299.34 235.47
  Q 303.38 237.12 304.92 241.60
  Q 305.03 242.82 304.19 243.78
  L 303.60 243.39
  Q 303.17 243.11 303.04 242.62
  Q 302.10 239.08 298.91 237.15
  C 298.47 236.88 298.19 236.35 298.20 235.84
  L 299.34 235.47
  Z"
/>
<circle fill="#ebecf0" cx="220.93" cy="237.89" r="1.20"/>
<path fill="#ebecf0" d="
  M 281.69 252.25
  C 280.40 247.64 282.58 240.39 287.56 238.39
  Q 290.09 237.38 288.09 239.24
  C 287.22 240.05 286.43 240.68 285.88 241.79
  Q 284.13 245.31 284.22 249.64
  C 284.26 251.42 285.11 252.66 285.89 254.17
  A 0.59 0.59 0.0 0 1 285.42 255.03
  Q 282.54 255.30 281.69 252.25
  Z"
/>
<circle fill="#ebecf0" cx="289.92" cy="256.89" r="1.39"/>
<path fill="#000000" d="
  M 170.72 305.16
  Q 182.03 323.46 170.98 341.94
  Q 169.85 343.83 162.56 351.06
  Q 137.02 376.40 115.08 398.50
  Q 107.13 406.51 97.62 407.75
  Q 93.08 408.34 87.27 407.94
  C 74.56 407.06 61.49 394.51 60.22 381.89
  C 59.78 377.54 59.52 371.37 60.93 367.15
  Q 63.68 358.95 68.06 354.56
  Q 95.15 327.38 122.80 299.81
  Q 128.51 294.12 137.28 292.30
  Q 151.31 289.40 162.77 297.27
  Q 163.26 297.61 163.69 297.19
  L 182.19 278.69
  Q 182.63 278.25 183.07 278.69
  L 189.44 285.06
  A 0.45 0.45 0.0 0 1 189.44 285.69
  L 170.82 304.30
  Q 170.43 304.69 170.72 305.16
  Z
  M 160.1826 338.8321
  A 21.49 21.49 0.0 0 0 160.1296 308.4407
  L 159.3221 307.6360
  A 21.49 21.49 0.0 0 0 128.9307 307.6891
  L 75.8774 360.9279
  A 21.49 21.49 0.0 0 0 75.9304 391.3193
  L 76.7379 392.1240
  A 21.49 21.49 0.0 0 0 107.1293 392.0709
  L 160.1826 338.8321
  Z"
/>
<rect fill="#ebecf0" x="-22.06" y="-59.07" transform="translate(118.03,349.88) rotate(44.9)" width="44.12" height="118.14" rx="21.49"/>
</svg>
